<?xml version="1.0" encoding="UTF-8"?>
<svg version="1.1" xmlns="http://www.w3.org/2000/svg" width="512" height="512">
<path d="M0 0 C1.4951386 -0.00461931 2.99027264 -0.01097909 4.48539734 -0.01890898 C8.55842348 -0.03548426 12.63107091 -0.02741029 16.70409775 -0.0149641 C21.11045545 -0.00586715 25.51675065 -0.01990625 29.9230957 -0.03088379 C38.54111096 -0.04862426 47.15898648 -0.04484902 55.7770071 -0.03323323 C62.78412963 -0.02418153 69.79121314 -0.0229824 76.79833984 -0.02732849 C77.79750585 -0.02794142 78.79667185 -0.02855436 79.82611561 -0.02918586 C81.85621517 -0.03046483 83.88631472 -0.03176168 85.91641426 -0.03307623 C104.93061966 -0.04446893 123.94474778 -0.0313889 142.95894051 -0.00987476 C159.25651985 0.00799502 175.55398521 0.00489054 191.8515625 -0.0135498 C210.80002212 -0.03497968 229.7484141 -0.04337041 248.69688416 -0.03110075 C250.71930948 -0.02982662 252.74173481 -0.02856914 254.76416016 -0.02732849 C255.75910398 -0.02671139 256.75404779 -0.02609429 257.77914143 -0.02545848 C264.77383873 -0.02201194 271.76849296 -0.02781891 278.76318359 -0.0372467 C287.29313305 -0.04849161 295.82293537 -0.04537438 304.35286808 -0.02412373 C308.70087337 -0.01364677 313.04863376 -0.00943389 317.39663696 -0.02272034 C321.38401372 -0.03472008 325.37092069 -0.02795828 329.35825539 -0.00681013 C330.79348097 -0.00237592 332.22874701 -0.00453791 333.66394615 -0.01431328 C350.24199055 -0.1184856 363.45664875 4.35198831 375.59375 15.82043457 C389.5895015 30.64093571 390.37607087 46.94580655 390.29882812 66.25793457 C390.30425612 68.54415328 390.31138257 70.83036849 390.32006836 73.11657715 C390.33822383 79.29425723 390.33126625 85.47166856 390.31855202 91.64935303 C390.308384 98.13216851 390.31782823 104.61496188 390.32409668 111.09777832 C390.33182662 122.6779423 390.31944123 134.25798429 390.29905933 145.83812904 C390.28119103 156.31406191 390.28429598 166.7898174 390.30273438 177.26574707 C390.32419412 189.46379626 390.33208004 201.66171932 390.32028532 213.85978699 C390.31406784 220.30488336 390.3131667 226.74985787 390.32643127 233.19494629 C390.33803523 239.25589075 390.32988093 245.31650218 390.30685425 251.37741089 C390.30159143 253.59405974 390.30303902 255.8107369 390.31190491 258.02737427 C390.38118819 277.11800874 388.14953383 291.84200787 374.46875 306.32043457 C362.16905156 317.93566413 348.11781373 321.12862999 331.5625 321.01586914 C330.0673614 321.02048845 328.57222736 321.02684823 327.07710266 321.03477812 C323.00407652 321.0513534 318.93142909 321.04327943 314.85840225 321.03083324 C310.45204455 321.02173629 306.04574935 321.03577539 301.6394043 321.04675293 C293.02138904 321.0644934 284.40351352 321.06071816 275.7854929 321.04910237 C268.77837037 321.04005067 261.77128686 321.03885154 254.76416016 321.04319763 C253.76499415 321.04381056 252.76582815 321.0444235 251.73638439 321.045055 C249.70628483 321.04633397 247.67618528 321.04763082 245.64608574 321.04894537 C226.63188034 321.06033807 207.61775222 321.04725804 188.60355949 321.0257439 C172.30598015 321.00787412 156.00851479 321.0109786 139.7109375 321.02941895 C120.76247788 321.05084882 101.8140859 321.05923955 82.86561584 321.04696989 C80.84319052 321.04569576 78.82076519 321.04443828 76.79833984 321.04319763 C75.80339602 321.04258053 74.80845221 321.04196343 73.78335857 321.04132763 C66.78866127 321.03788108 59.79400704 321.04368805 52.79931641 321.05311584 C44.26936695 321.06436075 35.73956463 321.06124352 27.20963192 321.03999287 C22.86162663 321.02951591 18.51386624 321.02530303 14.16586304 321.03858948 C10.17848628 321.05058922 6.19157931 321.04382742 2.20424461 321.02267927 C0.76901903 321.01824507 -0.66624701 321.02040705 -2.10144615 321.03018242 C-18.67949055 321.13435475 -31.89414875 316.66388083 -44.03125 305.19543457 C-58.0270015 290.37493343 -58.81357087 274.0700626 -58.73632812 254.75793457 C-58.74175612 252.47171586 -58.74888257 250.18550065 -58.75756836 247.89929199 C-58.77572383 241.72161191 -58.76876625 235.54420058 -58.75605202 229.36651611 C-58.745884 222.88370063 -58.75532823 216.40090726 -58.76159668 209.91809082 C-58.76932662 198.33792684 -58.75694123 186.75788485 -58.73655933 175.1777401 C-58.71869103 164.70180723 -58.72179598 154.22605174 -58.74023438 143.75012207 C-58.76169412 131.55207288 -58.76958004 119.35414982 -58.75778532 107.15608215 C-58.75156784 100.71098578 -58.7506667 94.26601127 -58.76393127 87.82092285 C-58.77553523 81.75997839 -58.76738093 75.69936696 -58.74435425 69.63845825 C-58.73909143 67.4218094 -58.74053902 65.20513224 -58.74940491 62.98849487 C-58.81868819 43.8978604 -56.58703383 29.17386127 -42.90625 14.69543457 C-30.60655156 3.08020501 -16.55531373 -0.11276085 0 0 Z M44.78125 83.50793457 C40.48147835 87.52728633 38.08082484 91.62739148 37.78125 97.50793457 C38.67857629 105.06901185 44.26035889 108.93070758 49.78125 113.50793457 C52.88092479 115.94747228 56.04004307 118.29768087 59.21875 120.63293457 C65.88416915 125.5785463 72.49625262 130.57863726 79.03125 135.69543457 C84.80329049 140.2088955 90.60626008 144.67494008 96.46875 149.07043457 C97.42152832 149.78526001 97.42152832 149.78526001 98.39355469 150.51452637 C100.83773446 152.34051448 103.27491892 154.16074666 105.79150391 155.88635254 C107.48585369 157.04949158 109.13787574 158.27382168 110.78125 159.50793457 C110.78125 160.16793457 110.78125 160.82793457 110.78125 161.50793457 C108.50555716 163.36095498 106.21748671 165.10035934 103.84375 166.82043457 C102.3587779 167.9146768 100.87442188 169.00975551 99.390625 170.10559082 C98.23916992 170.95274658 98.23916992 170.95274658 97.06445312 171.8170166 C93.54375197 174.42441354 90.06812429 177.08929034 86.59375 179.75793457 C85.17852822 180.84275631 83.76315959 181.9273865 82.34765625 183.01184082 C81.61562988 183.57274414 80.88360352 184.13364746 80.12939453 184.71154785 C76.67931353 187.35094232 73.22295104 189.98205808 69.76635742 192.61291504 C67.07707292 194.66054485 64.39007494 196.71114905 61.703125 198.76184082 C58.72397695 201.03398505 55.73684161 203.29405388 52.734375 205.53527832 C52.14108398 205.98169678 51.54779297 206.42811523 50.93652344 206.88806152 C49.41947147 208.02898306 47.89747686 209.16332479 46.375 210.29699707 C42.55760939 213.55097762 38.31559839 217.17987651 37.78125 222.44543457 C37.50956144 226.75951951 38.5863238 229.75531881 40.78125 233.50793457 C44.4950803 237.33041416 47.86837028 239.66551027 53.21875 240.00793457 C64.07289944 239.82186344 72.81799597 230.19702074 80.84765625 223.66809082 C84.63273493 220.60424713 88.49977326 217.66467979 92.40625 214.75793457 C99.51611951 209.46318322 106.57941316 204.11026133 113.62451172 198.72961426 C118.23152432 195.2112881 122.84462052 191.70170341 127.47265625 188.21105957 C128.40376221 187.50690918 129.33486816 186.80275879 130.29418945 186.07727051 C132.0573992 184.74420782 133.82270426 183.41390976 135.59057617 182.08703613 C145.73048548 174.92471158 145.73048548 174.92471158 153.40625 165.50793457 C154.01228092 160.65968725 154.29644826 156.7122708 151.47363281 152.60559082 C146.93992869 147.44081199 142.03564143 143.38964001 136.46875 139.38293457 C134.68512423 138.07319756 132.90259475 136.76196647 131.12109375 135.44934082 C130.2276123 134.79336914 129.33413086 134.13739746 128.41357422 133.46154785 C124.39937766 130.48236024 120.46398899 127.40589712 116.53125 124.32043457 C110.23142694 119.39127853 103.87584397 114.54727564 97.46557617 109.76281738 C93.40149848 106.72806278 89.36166069 103.6661201 85.34375 100.57043457 C84.30863281 99.77766113 83.27351563 98.9848877 82.20703125 98.16809082 C79.61273124 96.16933039 77.05977459 94.12385585 74.51171875 92.06652832 C73.01826357 90.88028709 71.52477429 89.69408878 70.03125 88.50793457 C69.34619385 87.94340576 68.6611377 87.37887695 67.95532227 86.79724121 C60.79219537 81.15463399 53.03702119 78.4066611 44.78125 83.50793457 Z M167.78125 214.57043457 C164.3540918 219.60407317 164.1235634 223.48686009 164.78125 229.50793457 C167.12917658 234.38439747 170.06885854 236.91131071 174.78125 239.50793457 C179.51394165 240.8481014 184.3242981 240.66290091 189.20214844 240.66906738 C190.14427185 240.67403229 191.08639526 240.67899719 192.05706787 240.68411255 C195.16826107 240.69869548 198.27940326 240.70552995 201.390625 240.71105957 C203.55910238 240.71681446 205.72757976 240.72257215 207.89605713 240.72833252 C212.44210039 240.73883168 216.98812602 240.74468136 221.53417969 240.74816895 C227.34565204 240.75364955 233.15688962 240.77767308 238.96828842 240.8061409 C243.44826935 240.82480929 247.92819422 240.82997513 252.40821075 240.83150482 C254.549922 240.83452268 256.69163247 240.84252177 258.83330536 240.85569 C261.83664057 240.87283729 264.83940848 240.87084894 267.84277344 240.86437988 C268.71893311 240.87359467 269.59509277 240.88280945 270.49780273 240.89230347 C276.65318118 240.85098869 283.61690961 240.32815273 288.41039658 236.05595779 C292.45654699 231.30240859 293.13726627 228.11352217 293.05859375 222.04699707 C292.64748556 218.28333055 291.2983864 216.2900327 288.78125 213.50793457 C282.19886243 208.32605499 276.38656105 208.35694833 268.36035156 208.34680176 C267.41822815 208.34183685 266.47610474 208.33687195 265.50543213 208.33175659 C262.39423893 208.31717366 259.28309674 208.31033919 256.171875 208.30480957 C254.00339762 208.29905468 251.83492024 208.29329699 249.66644287 208.28753662 C245.12039961 208.27703746 240.57437398 208.27118778 236.02832031 208.2677002 C230.21684796 208.26221959 224.40561038 208.23819606 218.59421158 208.20972824 C214.11423065 208.19105985 209.63430578 208.18589401 205.15428925 208.18436432 C203.012578 208.18134646 200.87086753 208.17334737 198.72919464 208.16017914 C195.72585943 208.14303185 192.72309152 208.1450202 189.71972656 208.15148926 C188.84356689 208.14227448 187.96740723 208.13305969 187.06469727 208.12356567 C180.01407463 208.17088931 172.59062819 208.92022053 167.78125 214.57043457 Z " fill="#002449" transform="translate(90.21875,95.4920654296875)"/>
</svg>
